<svg width="187" height="44" fill="none" xmlns="http://www.w3.org/2000/svg"><path d="M15.038 30.25l-3.192-6.096h-.024v6.096H6.494V13.258h7.92c1.376 0 2.552.248 3.528.744.976.48 1.704 1.144 2.184 1.992.496.832.744 1.776.744 2.832 0 1.136-.32 2.144-.96 3.024-.624.88-1.528 1.512-2.712 1.896l3.696 6.504h-5.856zm-3.216-9.648h2.112c.512 0 .896-.112 1.152-.336.256-.24.384-.608.384-1.104 0-.448-.136-.8-.408-1.056-.256-.256-.632-.384-1.128-.384h-2.112v2.88zm13.439-4.968c-.928 0-1.672-.248-2.232-.744a2.395 2.395 0 01-.84-1.872c0-.768.28-1.4.84-1.896.56-.512 1.304-.768 2.232-.768.912 0 1.648.256 2.208.768.56.496.84 1.128.84 1.896 0 .752-.28 1.376-.84 1.872-.56.496-1.296.744-2.208.744zm2.64 1.08V30.25h-5.328V16.714H27.9zm8.43 13.704c-1.28 0-2.416-.208-3.408-.624-.976-.416-1.752-.992-2.328-1.728a4.611 4.611 0 01-.984-2.496h5.112c.064.4.232.696.504.888.288.192.648.288 1.08.288.272 0 .488-.056.648-.168.16-.128.24-.28.24-.456 0-.304-.168-.52-.504-.648-.336-.128-.904-.272-1.704-.432-.976-.192-1.784-.4-2.424-.624-.624-.224-1.176-.608-1.656-1.152-.464-.544-.696-1.296-.696-2.256 0-.832.216-1.584.648-2.256.448-.688 1.104-1.224 1.968-1.608.864-.4 1.912-.6 3.144-.6 1.824 0 3.248.448 4.272 1.344 1.04.896 1.664 2.064 1.872 3.504h-4.728c-.08-.368-.248-.648-.504-.84-.256-.208-.6-.312-1.032-.312-.272 0-.48.056-.624.168-.144.096-.216.248-.216.456 0 .272.168.48.504.624.336.128.872.264 1.608.408.976.192 1.8.408 2.472.648.672.24 1.256.656 1.752 1.248.496.576.744 1.376.744 2.4 0 .8-.232 1.52-.696 2.16-.464.64-1.136 1.144-2.016 1.512-.864.368-1.88.552-3.048.552zm16.298-4.704v4.536h-2.016c-3.712 0-5.568-1.848-5.568-5.544v-3.552h-1.68v-4.44h1.68V13.45h5.328v3.264h2.208v4.44h-2.208v3.648c0 .32.072.552.216.696.16.144.416.216.768.216h1.272zm8.462 4.704c-1.36 0-2.584-.28-3.672-.84a6.295 6.295 0 01-2.569-2.4c-.608-1.056-.912-2.288-.912-3.696 0-1.408.304-2.632.912-3.672a6.248 6.248 0 012.569-2.424c1.088-.56 2.312-.84 3.672-.84 1.36 0 2.584.28 3.672.84a6.093 6.093 0 012.543 2.424c.624 1.04.937 2.264.937 3.672 0 1.408-.313 2.64-.936 3.696a6.136 6.136 0 01-2.544 2.4c-1.089.56-2.313.84-3.673.84zm0-4.608c.495 0 .911-.192 1.248-.576.336-.4.504-.984.504-1.752s-.169-1.344-.505-1.728c-.336-.4-.752-.6-1.248-.6s-.912.2-1.248.6c-.335.384-.503.96-.503 1.728s.16 1.352.48 1.752c.335.384.76.576 1.271.576zm14.153-6.6a6.34 6.34 0 011.992-1.872c.784-.48 1.6-.72 2.448-.72v5.688h-1.512c-1.008 0-1.752.176-2.232.528-.464.352-.696.976-.696 1.872v5.544h-5.328V16.714h5.328v2.496zm5.155 4.272c0-1.424.24-2.656.72-3.696.496-1.056 1.168-1.856 2.016-2.4.848-.56 1.8-.84 2.856-.84.88 0 1.64.184 2.28.552.64.352 1.128.84 1.464 1.464v-1.848h5.304V30.25h-5.304v-1.848a3.74 3.74 0 01-1.464 1.488c-.64.352-1.4.528-2.28.528-1.056 0-2.008-.272-2.856-.816-.848-.56-1.52-1.36-2.016-2.4-.48-1.056-.72-2.296-.72-3.72zm9.336 0c0-.72-.184-1.28-.552-1.68-.368-.4-.84-.6-1.416-.6s-1.048.2-1.416.6c-.368.4-.552.96-.552 1.68s.184 1.28.552 1.68c.368.4.84.6 1.416.6s1.048-.2 1.416-.6c.368-.4.552-.96.552-1.68zm17.177-6.864c1.552 0 2.76.52 3.624 1.56.88 1.04 1.32 2.448 1.32 4.224v7.848h-5.304v-7.176c0-.64-.176-1.144-.528-1.512-.336-.384-.792-.576-1.368-.576-.592 0-1.056.192-1.392.576-.336.368-.504.872-.504 1.512v7.176h-5.328V16.714h5.328v2.064c.416-.64.968-1.16 1.656-1.56.704-.4 1.536-.6 2.496-.6zm15.678 9.096v4.536h-2.016c-3.712 0-5.568-1.848-5.568-5.544v-3.552h-1.68v-4.44h1.68V13.45h5.328v3.264h2.208v4.44h-2.208v3.648c0 .32.072.552.216.696.16.144.416.216.768.216h1.272zm15.133-2.352c0 .368-.024.72-.072 1.056h-8.568c.08 1.168.568 1.752 1.464 1.752.576 0 .992-.264 1.248-.792h5.64c-.192.96-.6 1.824-1.224 2.592-.608.752-1.384 1.352-2.328 1.8-.928.432-1.952.648-3.072.648-1.344 0-2.544-.28-3.6-.84a6.091 6.091 0 01-2.448-2.4c-.576-1.056-.864-2.288-.864-3.696 0-1.408.288-2.632.864-3.672a6.05 6.05 0 012.448-2.424c1.056-.56 2.256-.84 3.6-.84 1.344 0 2.536.28 3.576.84a5.787 5.787 0 012.448 2.352c.592 1.024.888 2.232.888 3.624zm-5.4-1.272c0-.448-.144-.784-.432-1.008-.288-.24-.648-.36-1.08-.36-.944 0-1.496.456-1.656 1.368h3.168z" fill="#fff"/><path d="M155 24h-6v-6h6v6zm8-6h-6v6h6v-6zm-4-8h-6v6h6v-6zm20 12c-7.5 0-11.44 2.5-14 4h-18c0 4.42 3.58 8 8 8h2c2 0 3.84-.74 5.24-2 2.88-2.44 6.12-4.52 9.86-5.28 2.12-.42 4.46-.72 6.9-.72h8v-4h-8z" fill="#FF893B"/></svg>