<svg width="249" height="47" viewBox="0 0 249 47" fill="none" xmlns="http://www.w3.org/2000/svg">
<path d="M33.624 12.88V46H30.264V19.552L18.456 46H16.008L4.2 19.648V46H0.84V12.88H4.392L17.208 41.584L30.024 12.88H33.624ZM60.6863 38.032H45.4223L42.4943 46H38.9423L51.1823 12.88H54.9743L67.1663 46H63.6143L60.6863 38.032ZM59.6783 35.248L53.0543 17.104L46.4303 35.248H59.6783ZM109.855 12.304V46H101.647V25.792L94.1108 46H87.4868L79.9028 25.744V46H71.6948V12.304H81.3907L90.8468 35.632L100.207 12.304H109.855ZM123.965 18.88V25.696H134.957V32.032H123.965V39.424H136.397V46H115.757V12.304H136.397V18.88H123.965ZM157.902 29.68L153.63 29.632C152.062 29.632 150.862 29.664 150.03 29.728C149.518 34.336 149.262 38.048 149.262 40.864C149.262 43.648 149.358 45.6 149.55 46.72C148.718 46.784 148.27 46.816 148.206 46.816C146.734 46.816 145.63 46.496 144.894 45.856C144.19 45.216 143.838 44.128 143.838 42.592C143.838 41.056 144.302 37.008 145.23 30.448C144.334 30.672 143.566 30.912 142.926 31.168C142.862 30.592 142.83 30.128 142.83 29.776C142.83 27.824 143.822 26.608 145.806 26.128C146.542 20.752 146.942 16.48 147.006 13.312C145.758 13.312 144.91 13.152 144.462 12.832C144.014 12.48 143.79 11.824 143.79 10.864C143.79 9.872 143.918 9.024 144.174 8.32C147.47 8.768 151.054 8.992 154.926 8.992C158.798 8.992 162.494 8.64 166.014 7.936C165.598 10.528 163.79 12.08 160.59 12.592C158.702 12.912 155.838 13.136 151.998 13.264C151.998 14.768 151.502 18.992 150.51 25.936C152.494 26 153.934 26.032 154.83 26.032C157.646 26.032 159.646 25.568 160.83 24.64C160.894 25.152 160.926 25.568 160.926 25.888C160.926 28.416 159.918 29.68 157.902 29.68ZM184.026 30.256C184.026 27.12 183.626 24.88 182.826 23.536C182.058 22.16 180.938 21.472 179.466 21.472C178.026 21.472 176.57 22.192 175.098 23.632C173.626 25.04 172.458 26.8 171.594 28.912C170.762 30.992 170.346 33.168 170.346 35.44C170.346 37.68 170.778 39.632 171.642 41.296C172.506 42.928 173.818 43.744 175.578 43.744C178.074 43.744 180.106 42.272 181.674 39.328C183.242 36.384 184.026 33.36 184.026 30.256ZM170.106 28.384C171.322 24.928 172.954 22.416 175.002 20.848C177.082 19.248 179.178 18.448 181.29 18.448C183.434 18.448 185.21 19.392 186.618 21.28C188.026 23.136 188.73 25.664 188.73 28.864C188.73 32.384 188.058 35.648 186.714 38.656C185.21 41.984 183.034 44.304 180.186 45.616C178.65 46.352 176.954 46.72 175.098 46.72C172.506 46.72 170.234 45.648 168.282 43.504C166.33 41.328 165.354 38.24 165.354 34.24C165.354 30.208 166.218 26.72 167.946 23.776C169.674 20.832 172.026 18.784 175.002 17.632C175.642 17.632 175.962 17.952 175.962 18.592C172.794 20.672 170.842 23.936 170.106 28.384ZM213.651 30.256C213.651 27.12 213.251 24.88 212.451 23.536C211.683 22.16 210.563 21.472 209.091 21.472C207.651 21.472 206.195 22.192 204.723 23.632C203.251 25.04 202.083 26.8 201.219 28.912C200.387 30.992 199.971 33.168 199.971 35.44C199.971 37.68 200.403 39.632 201.267 41.296C202.131 42.928 203.443 43.744 205.203 43.744C207.699 43.744 209.731 42.272 211.299 39.328C212.867 36.384 213.651 33.36 213.651 30.256ZM199.731 28.384C200.947 24.928 202.579 22.416 204.627 20.848C206.707 19.248 208.803 18.448 210.915 18.448C213.059 18.448 214.835 19.392 216.243 21.28C217.651 23.136 218.355 25.664 218.355 28.864C218.355 32.384 217.683 35.648 216.339 38.656C214.835 41.984 212.659 44.304 209.811 45.616C208.275 46.352 206.579 46.72 204.723 46.72C202.131 46.72 199.859 45.648 197.907 43.504C195.955 41.328 194.979 38.24 194.979 34.24C194.979 30.208 195.843 26.72 197.571 23.776C199.299 20.832 201.651 18.784 204.627 17.632C205.267 17.632 205.587 17.952 205.587 18.592C202.419 20.672 200.467 23.936 199.731 28.384ZM229.116 36.304C229.116 38.128 229.468 39.616 230.172 40.768C230.876 41.92 231.964 42.496 233.436 42.496C234.94 42.496 236.3 41.84 237.516 40.528C238.764 39.184 239.756 37.392 240.492 35.152C241.26 32.88 241.916 30.48 242.46 27.952C243.036 25.392 243.452 22.672 243.708 19.792C244.188 14.448 244.428 10.208 244.428 7.072C244.428 3.936 244.3 1.6 244.044 0.0639992C247.34 1.12 248.988 4.432 248.988 10C248.988 12.272 248.444 16.848 247.356 23.728C246.3 30.608 245.772 35.632 245.772 38.8C245.772 41.968 245.916 44.656 246.204 46.864C244.38 46.256 243.132 45.168 242.46 43.6C241.788 42.032 241.452 40.032 241.452 37.6C240.46 40.352 238.988 42.528 237.036 44.128C235.084 45.728 233.052 46.528 230.94 46.528C228.86 46.528 227.164 45.728 225.852 44.128C224.572 42.496 223.932 40.112 223.932 36.976C223.932 31.76 225.292 27.472 228.012 24.112C230.764 20.752 234.172 19.072 238.236 19.072C239.388 19.072 240.62 19.248 241.932 19.6C239.756 19.952 237.804 20.752 236.076 22C234.348 23.216 233.004 24.656 232.044 26.32C230.092 29.712 229.116 33.04 229.116 36.304Z" fill="#00A8CC"/>
</svg>
